<?xml version="1.0" encoding="utf-8"?>
<!-- Generator: Adobe Illustrator 15.0.0, SVG Export Plug-In . SVG Version: 6.00 Build 0)  -->
<!DOCTYPE svg PUBLIC "-//W3C//DTD SVG 1.1//EN" "http://www.w3.org/Graphics/SVG/1.1/DTD/svg11.dtd">
<svg version="1.1" id="Layer_1" xmlns="http://www.w3.org/2000/svg" xmlns:xlink="http://www.w3.org/1999/xlink" x="0px" y="0px"
	 width="16px" height="16px" viewBox="0 0 16 16" enable-background="new 0 0 16 16" xml:space="preserve">
<path fill="#FFFFFF" d="M13.75,12.141l-2.156-2.158c-0.271-0.271-0.68-0.317-1.004-0.146l-0.409-0.408
	c0.62-0.783,0.989-1.769,0.989-2.842C11.17,4.052,9.119,2,6.586,2C4.053,2,2,4.052,2,6.585c0,2.534,2.054,4.586,4.586,4.586
	c1.074,0,2.06-0.371,2.84-0.99l0.41,0.409c-0.171,0.322-0.124,0.729,0.146,1.001l2.158,2.158c0.332,0.334,0.873,0.334,1.207,0
	l0.402-0.402C14.084,13.014,14.084,12.474,13.75,12.141z M2.847,6.585c0-2.064,1.673-3.737,3.739-3.737
	c2.064,0,3.738,1.673,3.738,3.737c0,2.065-1.674,3.737-3.738,3.737C4.52,10.322,2.847,8.65,2.847,6.585z"/>
</svg>
